<svg width="68" height="57" viewBox="0 0 68 57" fill="none" xmlns="http://www.w3.org/2000/svg">
<path d="M66.8393 9.07486C66.3375 5.95104 65.2262 2.93989 63.6489 0.215511C63.6131 0.159179 63.567 0.107969 63.5056 0.0670013C63.3058 -0.0610239 63.0447 0.000428292 62.9166 0.200148L62.9115 0.205269C62.3124 1.26532 61.4572 2.16661 60.4483 2.86307C59.4395 3.56977 58.2821 4.06651 57.0889 4.44034C54.6923 5.18801 52.1523 5.46967 49.6225 5.67963C47.738 5.83326 45.8483 5.96128 43.9536 6.10979C47.4 9.208 50.319 12.8695 52.562 16.9612C55.527 15.2662 58.3077 12.8593 60.9092 9.07998C60.6122 9.51014 60.4073 10.2117 59.9772 11.0106C59.5009 11.8709 58.8762 12.8849 58.0517 13.9705C57.2272 15.0562 56.2081 16.2084 54.9893 17.3606C54.5131 17.8113 54.001 18.2619 53.4684 18.7126C55.8804 23.6492 57.3296 29.1338 57.5857 34.9359C57.5908 34.9308 57.5908 34.9308 57.5959 34.9257C59.8338 32.6827 61.7644 30.1376 63.3007 27.3722C64.837 24.6069 65.9841 21.6213 66.6089 18.5129C67.249 15.4147 67.3463 12.1936 66.8393 9.07486Z" fill="#6CE8B4"/>
<path d="M34.3824 7.49754C33.1328 7.8304 31.8884 8.22472 30.6799 8.7317C30.0705 8.98263 29.4918 9.25916 28.8926 9.57154C28.611 9.72517 28.3345 9.86856 28.0477 10.0324C27.766 10.2014 27.469 10.3704 27.1976 10.5445C24.9751 11.9426 22.9779 13.7708 21.4518 15.983C20.699 17.0892 20.0589 18.2875 19.5826 19.5575C19.1269 20.8326 18.8043 22.1641 18.6865 23.5263C18.5584 24.8834 18.6353 26.2609 18.8862 27.6077C19.0091 28.2786 19.1832 28.9443 19.3983 29.5947C19.6031 30.2399 20.0231 30.9313 20.5915 31.1668C21.0319 31.3512 21.5081 30.9722 21.7437 30.7674C33.4862 20.8224 43.805 21.9797 52.5619 16.9612C50.3138 12.8695 47.3948 9.20795 43.9535 6.10974C43.298 6.16095 42.6477 6.20704 41.9922 6.26337C39.4522 6.50406 36.8917 6.84717 34.3824 7.49754Z" fill="#BBFFE2"/>
<path d="M50.826 20.7865C49.2641 21.8978 47.5588 22.9886 45.7408 24.0332C42.11 26.1329 38.0695 28.0737 34.0086 30.0095C29.9476 31.9503 25.8559 33.8912 22.133 36.042C20.2792 37.1225 18.5073 38.2492 16.9044 39.4526C15.2964 40.6509 13.8472 41.9209 12.6233 43.2422C11.3942 44.5531 10.3956 45.9153 9.64795 47.2161C8.89516 48.5168 8.38306 49.7458 8.03995 50.7854C7.8812 51.3129 7.73781 51.7635 7.64051 52.2039C7.59442 52.419 7.54833 52.6238 7.50737 52.8082C7.48688 52.9004 7.4664 52.9874 7.45103 53.0745C7.44079 53.1462 7.42543 53.2179 7.41519 53.2793C7.32813 53.8017 7.28204 54.0782 7.28204 54.0782C7.27692 54.1089 7.2718 54.1448 7.26668 54.1755C7.14889 55.2099 7.89144 56.142 8.92588 56.2598C9.96033 56.3775 10.8924 55.635 11.0101 54.6005C11.0101 54.6005 11.0409 54.3189 11.1023 53.7966C11.1074 53.73 11.1177 53.6634 11.1279 53.5866C11.1382 53.5251 11.1484 53.4637 11.1638 53.3971C11.1843 53.264 11.2099 53.1155 11.2406 52.9618C11.2867 52.6494 11.3942 52.2551 11.4966 51.8352C11.7271 50.9902 12.0855 49.9763 12.6489 48.8701C13.207 47.764 13.9854 46.5657 15.0045 45.3571C16.0134 44.1434 17.2629 42.9246 18.6968 41.7315C20.1255 40.5331 21.7489 39.3758 23.4849 38.2389C23.659 38.1263 23.8383 38.0136 24.0124 37.9009L24.1046 37.988C24.3965 38.2594 24.7191 38.5359 25.0263 38.8074C25.6562 39.3348 26.2963 39.8264 26.9723 40.2822C28.3191 41.1937 29.7786 41.9568 31.3098 42.5252C32.841 43.0988 34.4439 43.4726 36.0621 43.6416C37.6803 43.8157 39.3139 43.7901 40.9168 43.5955C44.1277 43.2012 47.2105 42.1309 50.0169 40.6253C52.8232 39.1146 55.3683 37.1686 57.6011 34.9308C57.345 29.1338 55.8907 23.6441 53.4838 18.7074C52.6542 19.409 51.7734 20.1054 50.826 20.7865Z" fill="#6CE8B4"/>
<path d="M5.92501 38.4694C9.1973 38.4694 11.85 35.8167 11.85 32.5444C11.85 29.2721 9.1973 26.6194 5.92501 26.6194C2.65272 26.6194 0 29.2721 0 32.5444C0 35.8167 2.65272 38.4694 5.92501 38.4694Z" fill="#BBFFE2"/>
</svg>
