<svg width="180" height="162" viewBox="0 0 180 162" fill="none" xmlns="http://www.w3.org/2000/svg">
<path d="M128.39 93.84C125.26 94.22 122.07 94.27 118.91 93.93C115.75 93.6 112.62 92.86 109.63 91.75C106.64 90.64 103.79 89.15 101.16 87.37C99.84 86.48 98.59 85.52 97.36 84.49C96.76 83.96 96.12 83.42 95.56 82.89L95.38 82.72C95.04 82.94 94.69 83.16 94.35 83.38C90.96 85.6 87.8 87.86 85 90.2C82.2 92.53 79.76 94.91 77.79 97.28C75.8 99.64 74.28 101.97 73.19 104.14C72.09 106.3 71.39 108.28 70.94 109.93C70.74 110.75 70.54 111.53 70.44 112.13C70.39 112.44 70.34 112.72 70.29 112.98C70.27 113.11 70.24 113.23 70.22 113.35C70.2 113.49 70.19 113.63 70.17 113.76C70.05 114.78 69.99 115.33 69.99 115.33C69.76 117.35 67.94 118.8 65.92 118.57C63.9 118.34 62.45 116.52 62.68 114.5C62.69 114.44 62.7 114.37 62.71 114.31C62.71 114.31 62.8 113.77 62.97 112.75C62.99 112.62 63.01 112.49 63.04 112.35C63.08 112.19 63.11 112.01 63.15 111.83C63.23 111.47 63.32 111.08 63.41 110.65C63.6 109.79 63.88 108.91 64.19 107.88C64.85 105.85 65.86 103.45 67.33 100.91C68.79 98.37 70.74 95.71 73.14 93.15C75.53 90.57 78.36 88.09 81.5 85.75C84.63 83.4 88.08 81.2 91.71 79.09C98.97 74.88 106.96 71.09 114.9 67.31C122.83 63.53 130.73 59.74 137.81 55.64C141.36 53.6 144.69 51.47 147.74 49.3C149.59 47.97 151.31 46.62 152.92 45.25C152.36 44.09 151.77 42.95 151.15 41.83C134.05 51.63 113.9 49.36 90.97 68.79C90.5 69.19 89.57 69.93 88.72 69.57C87.61 69.11 86.79 67.76 86.39 66.5C85.96 65.23 85.63 63.94 85.39 62.62C84.9 60 84.75 57.3 85 54.65C85.23 51.99 85.86 49.39 86.75 46.9C87.68 44.42 88.93 42.08 90.4 39.92C93.38 35.6 97.28 32.04 101.62 29.3C102.16 28.95 102.73 28.63 103.28 28.3C103.84 27.97 104.38 27.7 104.93 27.4C106.09 26.79 107.23 26.25 108.42 25.76C110.77 24.77 113.2 24 115.65 23.35C120.55 22.08 125.55 21.41 130.52 20.94C131.8 20.83 133.07 20.74 134.35 20.64C120.08 7.81 101.22 0 80.53 0C36.06 0 0 36.06 0 80.53C0 125.01 36.06 161.06 80.53 161.06C125 161.06 161.06 125 161.06 80.53C161.06 79.32 161.02 78.11 160.97 76.91C156.61 81.28 151.63 85.08 146.16 88.03C140.68 90.99 134.66 93.08 128.39 93.84Z" fill="#004343"/>
<path d="M179.02 26.4201C178.04 20.3201 175.87 14.4401 172.79 9.12005C172.72 9.01005 172.63 8.91005 172.51 8.83005C172.12 8.58005 171.61 8.70006 171.36 9.09006L171.35 9.10006C170.18 11.1701 168.51 12.9301 166.54 14.2901C164.57 15.6701 162.31 16.6401 159.98 17.3701C155.3 18.8301 150.34 19.3801 145.4 19.7901C141.72 20.0901 138.03 20.3401 134.33 20.6301C141.06 26.6801 146.76 33.8301 151.14 41.8201C156.93 38.5101 162.36 33.8101 167.44 26.4301C166.86 27.2701 166.46 28.6401 165.62 30.2001C164.69 31.8801 163.47 33.8601 161.86 35.9801C160.25 38.1001 158.26 40.3501 155.88 42.6001C154.95 43.4801 153.95 44.3601 152.91 45.2401C157.62 54.8801 160.45 65.59 160.95 76.9201C160.96 76.91 160.96 76.9101 160.97 76.9001C165.34 72.5201 169.11 67.5501 172.11 62.1501C175.11 56.7501 177.35 50.9201 178.57 44.8501C179.82 38.8001 180.01 32.5101 179.02 26.4201Z" fill="#6CE8B4"/>
<path d="M115.64 23.3399C113.2 23.9899 110.77 24.7599 108.41 25.7499C107.22 26.2399 106.09 26.7799 104.92 27.3899C104.37 27.6899 103.83 27.9699 103.27 28.2899C102.72 28.6199 102.14 28.9499 101.61 29.2899C97.2699 32.0199 93.3699 35.5899 90.3899 39.9099C88.9199 42.0699 87.6699 44.4099 86.7399 46.8899C85.8499 49.3799 85.2199 51.9799 84.9899 54.6399C84.7399 57.2899 84.8899 59.9799 85.3799 62.6099C85.6199 63.9199 85.9599 65.2199 86.3799 66.4899C86.7799 67.7499 87.5999 69.0999 88.7099 69.5599C89.5699 69.9199 90.4999 69.1799 90.9599 68.7799C113.89 49.3599 134.04 51.6199 151.14 41.8199C146.75 33.8299 141.05 26.6799 134.33 20.6299C133.05 20.7299 131.78 20.8199 130.5 20.9299C125.54 21.3999 120.54 22.0699 115.64 23.3399Z" fill="#BBFFE2"/>
<path d="M147.75 49.29C144.7 51.46 141.37 53.59 137.82 55.63C130.73 59.73 122.84 63.52 114.91 67.3C106.98 71.09 98.99 74.88 91.72 79.08C88.1 81.19 84.64 83.39 81.51 85.74C78.37 88.08 75.54 90.56 73.15 93.14C70.75 95.7 68.8 98.36 67.34 100.9C65.87 103.44 64.87 105.84 64.2 107.87C63.89 108.9 63.61 109.78 63.42 110.64C63.33 111.06 63.24 111.46 63.16 111.82C63.12 112 63.08 112.17 63.05 112.34C63.03 112.48 63 112.62 62.98 112.74C62.81 113.76 62.72 114.3 62.72 114.3C62.71 114.36 62.7 114.43 62.69 114.49C62.46 116.51 63.91 118.33 65.93 118.56C67.95 118.79 69.77 117.34 70 115.32C70 115.32 70.06 114.77 70.18 113.75C70.19 113.62 70.21 113.49 70.23 113.34C70.25 113.22 70.27 113.1 70.3 112.97C70.34 112.71 70.39 112.42 70.45 112.12C70.54 111.51 70.75 110.74 70.95 109.92C71.4 108.27 72.1 106.29 73.2 104.13C74.29 101.97 75.81 99.63 77.8 97.27C79.77 94.9 82.21 92.52 85.01 90.19C87.8 87.85 90.97 85.59 94.36 83.37C94.7 83.15 95.05 82.93 95.39 82.71L95.57 82.88C96.14 83.41 96.77 83.95 97.37 84.48C98.6 85.51 99.85 86.47 101.17 87.36C103.8 89.14 106.65 90.63 109.64 91.74C112.63 92.86 115.76 93.59 118.92 93.92C122.08 94.26 125.27 94.21 128.4 93.83C134.67 93.06 140.69 90.97 146.17 88.03C151.65 85.08 156.62 81.28 160.98 76.91C160.48 65.59 157.64 54.87 152.94 45.23C151.32 46.6 149.6 47.96 147.75 49.29Z" fill="#6CE8B4"/>
<path d="M60.07 83.8199C66.4599 83.8199 71.64 78.6399 71.64 72.2499C71.64 65.86 66.4599 60.6799 60.07 60.6799C53.6801 60.6799 48.5 65.86 48.5 72.2499C48.5 78.6399 53.6801 83.8199 60.07 83.8199Z" fill="#BBFFE2"/>
</svg>
